<?xml version="1.0" encoding="utf-8"?>
<!-- Generator: Adobe Illustrator 25.0.0, SVG Export Plug-In . SVG Version: 6.00 Build 0)  -->
<svg version="1.1" id="Layer_1" xmlns="http://www.w3.org/2000/svg" xmlns:xlink="http://www.w3.org/1999/xlink" x="0px" y="0px"
	 viewBox="0 0 23.2 29" style="enable-background:new 0 0 23.2 29;" xml:space="preserve">
<style type="text/css">
	.st0{fill-rule:evenodd;clip-rule:evenodd;fill:#D61E1E;}
</style>
<path id="trash-can" class="st0" d="M3.2,27.4C3.2,28.3,4,29,4.8,28.9h13.6c0.9,0,1.6-0.6,1.7-1.5l1.5-15.9h-20L3.2,27.4z M15,16.5
	c0-0.5,0.4-0.8,0.8-0.8c0.5,0,0.8,0.4,0.8,0.8V24c0,0.5-0.4,0.8-0.8,0.8S15,24.4,15,24C15,24,15,16.5,15,16.5z M10.8,16.5
	c0-0.5,0.4-0.8,0.8-0.8s0.8,0.4,0.8,0.8l0,0V24c0,0.5-0.4,0.8-0.8,0.8s-0.8-0.4-0.8-0.8V16.5z M6.6,16.5c0-0.5,0.4-0.8,0.8-0.8
	c0.5,0,0.8,0.4,0.8,0.8V24c0,0.5-0.4,0.8-0.8,0.8S6.6,24.4,6.6,24C6.6,24,6.6,16.5,6.6,16.5z M21.6,6.5H15V5.7
	c0-0.9-0.7-1.6-1.6-1.7c0,0,0,0,0,0H10c-0.9,0-1.6,0.7-1.7,1.6c0,0,0,0,0,0v0.8H1.6C0.7,6.5,0,7.3,0,8.2c0,0.9,0.7,1.7,1.6,1.7
	c0,0,0,0,0,0h20c0.9,0,1.7-0.7,1.7-1.6C23.3,7.3,22.5,6.5,21.6,6.5C21.6,6.5,21.6,6.5,21.6,6.5z"/>
</svg>
