<?xml version="1.0" encoding="utf-8"?>
<!-- Generator: Adobe Illustrator 25.0.0, SVG Export Plug-In . SVG Version: 6.00 Build 0)  -->
<svg version="1.1" id="Layer_1" xmlns="http://www.w3.org/2000/svg" xmlns:xlink="http://www.w3.org/1999/xlink" x="0px" y="0px"
	 viewBox="0 0 22.5 29" style="enable-background:new 0 0 22.5 29;" xml:space="preserve">
<style type="text/css">
	.st0{fill-rule:evenodd;clip-rule:evenodd;fill:#D61E1E;}
</style>
<path id="trash-can" class="st0" d="M3.5,27.1c0.1,0.9,0.8,1.5,1.7,1.5h13.6c0.9,0,1.6-0.6,1.7-1.5L22,11.2H2L3.5,27.1z M15.3,16.1
	c0-0.5,0.4-0.8,0.8-0.8c0.5,0,0.8,0.4,0.8,0.8v7.5c0,0.5-0.4,0.8-0.8,0.8s-0.8-0.4-0.8-0.8l0,0C15.3,23.6,15.3,16.1,15.3,16.1z
	 M11.2,16.1c0-0.5,0.4-0.8,0.8-0.8s0.8,0.4,0.8,0.8v7.5c0,0.5-0.4,0.8-0.8,0.8s-0.8-0.4-0.8-0.8l0,0V16.1z M7,16.1
	c0-0.5,0.4-0.8,0.8-0.8c0.5,0,0.8,0.4,0.8,0.8v7.5c0,0.5-0.4,0.8-0.8,0.8S7,24.1,7,23.6l0,0C7,23.6,7,16.1,7,16.1z M2,0.7l6.4,1.7
	l0.2-0.8c0.2-0.9,1.1-1.4,2-1.2c0,0,0,0,0,0l3.2,0.9c0.9,0.2,1.4,1.1,1.2,2c0,0,0,0,0,0l-0.2,0.8l6.4,1.7c0.9,0.2,1.4,1.1,1.2,2
	c-0.2,0.9-1.1,1.4-2,1.2L1.1,3.9c-0.9-0.2-1.4-1.1-1.2-2S1.1,0.5,2,0.7z"/>
</svg>
